<?xml version="1.0" encoding="utf-8"?>
<!-- Generator: Adobe Illustrator 27.5.0, SVG Export Plug-In . SVG Version: 6.00 Build 0)  -->
<svg version="1.1" id="Layer_1" xmlns="http://www.w3.org/2000/svg" xmlns:xlink="http://www.w3.org/1999/xlink" x="0px" y="0px"
	 viewBox="0 0 178.416 188.725" style="enable-background:new 0 0 178.416 188.725;" xml:space="preserve">
<g>
	<g>
		<g>
			<g>
				<g>
					<path style="fill:#CFD1D2;" d="M78.959,52.197c0,0-24.148-36.585-54.879-48.601C0.676-5.554-5.492,69.818,15.442,94.571
						L78.959,52.197z"/>
				</g>
			</g>
		</g>
		<g>
			<g>
				<g>
					<path style="fill:#FBC8C0;" d="M69.755,55.396c0,0-19.444-29.459-44.189-39.134C6.72,8.895,1.753,69.585,18.61,89.516
						L69.755,55.396z"/>
				</g>
			</g>
		</g>
		<g>
			<g>
				<g>
					<path style="fill:#CFD1D2;" d="M65.399,34.998c-6.395,1.554-12.712,3.425-18.838,5.841c-4.083,1.61-8.07,3.466-11.92,5.576
						c-1.971,1.08-3.907,2.226-5.802,3.435c-1,0.638-1.988,1.293-2.966,1.965c-0.927,0.637-1.907,1.256-2.768,1.98
						c-0.864,0.727-1.628,1.596-2.403,2.414c-1.049,1.108-2.089,2.225-3.151,3.321c-2.23,2.302-4.55,4.622-7.237,6.394
						c-1.681,1.109-3.869,2.179-5.876,1.436C6.39,78.268,9.997,88.133,15.442,94.571l63.517-42.374
						C78.959,52.197,73.867,44.493,65.399,34.998z"/>
				</g>
			</g>
		</g>
	</g>
	<g>
		<g>
			<g>
				<g>
					<path style="fill:#4A4B4C;" d="M99.457,52.197c0,0,24.148-36.585,54.879-48.601c23.404-9.15,29.572,66.221,8.638,90.974
						L99.457,52.197z"/>
				</g>
			</g>
		</g>
		<g>
			<g>
				<g>
					<path style="fill:#FBC8C0;" d="M108.662,55.396c0,0,19.444-29.459,44.189-39.134c18.845-7.368,23.812,53.322,6.955,73.253
						L108.662,55.396z"/>
				</g>
			</g>
		</g>
		<g>
			<g>
				<g>
					<path style="fill:#CFD1D2;" d="M113.018,34.998c6.394,1.554,12.712,3.425,18.838,5.841c4.083,1.61,8.07,3.466,11.921,5.576
						c1.971,1.08,3.907,2.226,5.802,3.435c1,0.638,1.988,1.293,2.966,1.965c0.927,0.637,1.907,1.256,2.768,1.98
						c0.864,0.727,1.629,1.596,2.403,2.414c1.049,1.108,2.089,2.225,3.151,3.321c2.23,2.302,4.55,4.622,7.237,6.394
						c1.681,1.109,3.869,2.179,5.876,1.436c-1.952,10.909-5.559,20.774-11.004,27.212L99.457,52.197
						C99.457,52.197,104.55,44.493,113.018,34.998z"/>
				</g>
			</g>
		</g>
	</g>
	<path style="fill:#E8EDE6;" d="M174.413,106.755c0,39.102-37.573,79.139-83.922,79.139c-46.349,0-83.922-40.037-83.922-79.139
		c0-39.102,37.573-70.801,83.922-70.801C136.84,35.954,174.413,67.653,174.413,106.755z"/>
	<path style="fill:#4A4B4C;" d="M14.18,126.129c6.221,2.248,13.097,2.36,19.579,1.375c6.467-0.982,12.843-3.047,18.589-6.186
		c7.425-4.058,13.06-10.345,16.483-18.069c3.583-8.084,4.911-16.96,6.762-25.543c0.125-0.578,0.9-0.373,0.953,0.129
		c0.382,3.653,0.075,7.369,0.613,11.004c1.721-3.36,2.513-7.147,4.491-10.39c0.199-0.326,0.817-0.318,0.886,0.116
		c0.349,2.193,0.462,4.418,0.975,6.575c1.653-3.146,2.573-6.768,5.08-9.364c0.243-0.252,0.736-0.145,0.811,0.214
		c0.745,3.566,0.095,7.355,1.082,10.864c3.468-3.087,4.975-8.04,7.472-11.838c0.233-0.354,0.754-0.289,0.887,0.116
		c1.982,6.04,2.414,12.389,3.546,18.608c0.577,3.171,1.357,6.316,2.573,9.308c1.234,3.039,3.016,5.731,5.059,8.285
		c3.389,4.238,7.432,7.972,11.938,10.995c2.257,1.514,4.571,2.821,7.127,3.757c2.581,0.945,5.243,1.66,7.936,2.204
		c5.176,1.045,10.633,1.614,15.917,1.377c3.085-0.138,6.165-0.412,9.23-0.777c2.938-0.35,5.882-0.782,8.807-1.327
		c2.233-6.81,3.438-13.823,3.438-20.807c0-39.102-37.573-70.801-83.922-70.801c-46.349,0-83.922,31.699-83.922,70.801
		c0,5.547,0.758,11.112,2.188,16.579C10.401,124.472,12.211,125.418,14.18,126.129z"/>
	<g>
		<g>
			<g>
				
					<ellipse transform="matrix(0.3827 -0.9239 0.9239 0.3827 -69.7648 124.6717)" style="fill:#FFFFFF;" cx="58.41" cy="114.541" rx="16.202" ry="16.202"/>
				<g>
					<circle style="fill:#62493E;" cx="58.41" cy="114.541" r="12.1"/>
					<g>
						
							<ellipse transform="matrix(0.2298 -0.9732 0.9732 0.2298 -66.4627 145.0526)" style="fill:#312017;" cx="58.41" cy="114.516" rx="10.03" ry="10.03"/>
						<path style="fill:#FFFFFF;" d="M56.516,109.623c0,1.02-0.827,1.846-1.846,1.846c-1.02,0-1.847-0.827-1.847-1.846
							s0.827-1.846,1.847-1.846C55.689,107.777,56.516,108.604,56.516,109.623z"/>
						<circle style="fill:#FFFFFF;" cx="51.309" cy="114.115" r="1.162"/>
					</g>
				</g>
			</g>
		</g>
		<g>
			<g>
				
					<ellipse transform="matrix(0.2298 -0.9732 0.9732 0.2298 -17.0657 207.5185)" style="fill:#FFFFFF;" cx="122.573" cy="114.541" rx="16.202" ry="16.202"/>
				<g>
					<path style="fill:#62493E;" d="M134.673,114.541c0,6.683-5.417,12.1-12.1,12.1c-6.683,0-12.1-5.417-12.1-12.1
						c0-6.683,5.417-12.1,12.1-12.1C129.255,102.441,134.673,107.858,134.673,114.541z"/>
					<g>
						
							<ellipse transform="matrix(0.9239 -0.3827 0.3827 0.9239 -34.4931 55.6236)" style="fill:#312017;" cx="122.573" cy="114.516" rx="10.03" ry="10.03"/>
						<path style="fill:#FFFFFF;" d="M120.679,109.623c0,1.02-0.827,1.846-1.847,1.846c-1.02,0-1.846-0.827-1.846-1.846
							s0.827-1.846,1.846-1.846C119.852,107.777,120.679,108.604,120.679,109.623z"/>
						<path style="fill:#FFFFFF;" d="M116.633,114.115c0,0.642-0.52,1.162-1.162,1.162c-0.642,0-1.162-0.52-1.162-1.162
							c0-0.642,0.52-1.162,1.162-1.162C116.113,112.952,116.633,113.473,116.633,114.115z"/>
					</g>
				</g>
			</g>
		</g>
	</g>
	<path style="fill:#CFD1D2;" d="M120.571,132.732c-0.345,0-0.695-0.081-1.021-0.251c-30.29-15.733-59.138-0.187-59.426-0.028
		c-1.073,0.594-2.424,0.204-3.016-0.868c-0.593-1.073-0.207-2.422,0.865-3.016c1.257-0.697,31.169-16.884,63.623-0.029
		c1.088,0.565,1.512,1.905,0.947,2.993C122.147,132.296,121.373,132.732,120.571,132.732z"/>
	<g>
		<g>
			<path style="fill:#674238;" d="M90.491,158.596c-0.491,0-0.888-0.199-0.888-0.444v-9.095c0-0.245,0.397-0.444,0.888-0.444
				c0.491,0,0.888,0.199,0.888,0.444v9.095C91.379,158.397,90.982,158.596,90.491,158.596z"/>
			<path style="fill:#674238;" d="M78.192,170.337c-0.41,0-0.779-0.286-0.867-0.703c-0.102-0.479,0.204-0.951,0.684-1.053
				c3.486-0.741,11.595-3.39,11.595-11.977c0-0.491,0.397-0.888,0.888-0.888c0.491,0,0.888,0.397,0.888,0.888
				c0,6.857-4.86,11.983-13.001,13.714C78.315,170.331,78.253,170.337,78.192,170.337z"/>
			<path style="fill:#674238;" d="M102.79,170.337c-0.062,0-0.123-0.006-0.186-0.019c-8.141-1.731-13.001-6.857-13.001-13.714
				c0-0.491,0.397-0.888,0.888-0.888c0.491,0,0.888,0.397,0.888,0.888c0,8.586,8.109,11.236,11.595,11.977
				c0.48,0.102,0.786,0.574,0.684,1.053C103.568,170.051,103.2,170.337,102.79,170.337z"/>
		</g>
		<path style="fill:#F7A8B0;" d="M102.347,147.083c-0.118-1.86-4.674-1.972-5.882-2.072c-3.707-0.305-7.435-0.294-11.145-0.058
			c-1.292,0.082-6.555,0.11-6.684,2.13c-0.175,2.753,4.277,6.373,10.416,7.234c0.362,0.055,0.745,0.1,1.15,0.131l0.003,0.035
			c0.01,0,0.032-0.001,0.048,0c0.041-0.002,0.138-0.003,0.238-0.003c0.1,0,0.197,0.001,0.238,0.002c0.016,0,0.038,0.001,0.048,0.001
			l0.003-0.035c0.406-0.031,0.788-0.076,1.15-0.131C98.07,153.456,102.522,149.836,102.347,147.083z"/>
	</g>
	<g>
		<g>
			<path style="fill:#674238;" d="M108.434,156.154c-0.184,0-0.355-0.114-0.42-0.298c-0.08-0.232,0.042-0.485,0.274-0.565
				c0.279-0.097,6.91-2.372,12.245-1.49c0.242,0.04,0.406,0.268,0.366,0.51c-0.04,0.243-0.274,0.407-0.51,0.366
				c-5.115-0.839-11.743,1.431-11.81,1.454C108.531,156.146,108.482,156.154,108.434,156.154z"/>
			<path style="fill:#674238;" d="M119.792,159.976c-0.066,0-0.132-0.015-0.194-0.045c-5.162-2.517-11.037-1.65-11.097-1.641
				c-0.246,0.037-0.469-0.128-0.506-0.371c-0.037-0.243,0.129-0.469,0.371-0.506c0.251-0.038,6.213-0.916,11.62,1.721
				c0.221,0.107,0.312,0.373,0.205,0.593C120.114,159.884,119.956,159.976,119.792,159.976z"/>
			<path style="fill:#674238;" d="M117.785,164.384c-0.084,0-0.169-0.023-0.244-0.074c-4.501-2.967-9.062-3.01-9.107-3.01
				c-0.245,0-0.444-0.199-0.444-0.444c0-0.245,0.199-0.444,0.444-0.444c0.196,0,4.862,0.036,9.596,3.157
				c0.205,0.134,0.261,0.41,0.126,0.615C118.07,164.314,117.929,164.384,117.785,164.384z"/>
		</g>
		<g>
			<path style="fill:#674238;" d="M72.549,156.154c-0.048,0-0.098-0.008-0.146-0.024c-0.066-0.023-6.699-2.293-11.81-1.454
				c-0.24,0.043-0.47-0.124-0.51-0.366c-0.04-0.242,0.124-0.47,0.366-0.51c5.335-0.879,11.966,1.393,12.245,1.49
				c0.231,0.081,0.354,0.334,0.273,0.565C72.904,156.039,72.732,156.154,72.549,156.154z"/>
			<path style="fill:#674238;" d="M61.191,159.976c-0.165,0-0.323-0.092-0.399-0.25c-0.107-0.22-0.016-0.486,0.204-0.593
				c5.407-2.637,11.369-1.759,11.62-1.721c0.242,0.037,0.408,0.264,0.371,0.506c-0.037,0.243-0.269,0.406-0.506,0.371
				c-0.059-0.009-5.946-0.87-11.096,1.641C61.322,159.962,61.256,159.976,61.191,159.976z"/>
			<path style="fill:#674238;" d="M63.198,164.384c-0.144,0-0.286-0.07-0.371-0.199c-0.135-0.205-0.078-0.48,0.126-0.615
				c4.732-3.121,9.399-3.157,9.595-3.157c0.245,0,0.443,0.199,0.444,0.444c0,0.244-0.199,0.444-0.444,0.444
				c-0.045,0-4.607,0.042-9.107,3.01C63.367,164.361,63.282,164.384,63.198,164.384z"/>
		</g>
	</g>
</g>
</svg>
